<?xml version="1.0" standalone="no"?>
<!DOCTYPE svg PUBLIC "-//W3C//DTD SVG 1.1//EN" "http://www.w3.org/Graphics/SVG/1.1/DTD/svg11.dtd" >
<svg xmlns="http://www.w3.org/2000/svg">
<metadata>
Created by FontForge 20120731 at Sat Dec 12 17:03:07 2015
 By Ads
</metadata>
<defs>
<font id="iconfont" horiz-adv-x="1024" >
  <font-face 
    font-family="iconfont"
    font-weight="500"
    font-stretch="normal"
    units-per-em="1024"
    panose-1="2 0 6 3 0 0 0 0 0 0"
    ascent="896"
    descent="-128"
    x-height="792"
    bbox="0 -221 1177 812"
    underline-thickness="50"
    underline-position="-100"
    unicode-range="U+0078-E614"
  />
<missing-glyph horiz-adv-x="374" 
d="M34 0v682h272v-682h-272zM68 34h204v614h-204v-614z" />
    <glyph glyph-name=".notdef" horiz-adv-x="374" 
d="M34 0v682h272v-682h-272zM68 34h204v614h-204v-614z" />
    <glyph glyph-name=".null" horiz-adv-x="0" 
 />
    <glyph glyph-name="nonmarkingreturn" horiz-adv-x="341" 
 />
    <glyph glyph-name="x" unicode="x" horiz-adv-x="1001" 
d="M281 543q-27 -1 -53 -1h-83q-18 0 -36.5 -6t-32.5 -18.5t-23 -32t-9 -45.5v-76h912v41q0 16 -0.5 30t-0.5 18q0 13 -5 29t-17 29.5t-31.5 22.5t-49.5 9h-133v-97h-438v97zM955 310v-52q0 -23 0.5 -52t0.5 -58t-10.5 -47.5t-26 -30t-33 -16t-31.5 -4.5q-14 -1 -29.5 -0.5
t-29.5 0.5h-32l-45 128h-439l-44 -128h-29h-34q-20 0 -45 1q-25 0 -41 9.5t-25.5 23t-13.5 29.5t-4 30v167h911zM163 247q-12 0 -21 -8.5t-9 -21.5t9 -21.5t21 -8.5q13 0 22 8.5t9 21.5t-9 21.5t-22 8.5zM316 123q-8 -26 -14 -48q-5 -19 -10.5 -37t-7.5 -25t-3 -15t1 -14.5
t9.5 -10.5t21.5 -4h37h67h81h80h64h36q23 0 34 12t2 38q-5 13 -9.5 30.5t-9.5 34.5q-5 19 -11 39h-368zM336 498v228q0 11 2.5 23t10 21.5t20.5 15.5t34 6h188q31 0 51.5 -14.5t20.5 -52.5v-227h-327z" />
    <glyph glyph-name="uniE600" unicode="&#xe600;" 
d="M541 288l370 370q6 6 6 14.5t-6 14.5q-4 4 -9.5 5t-10.5 0t-9 -5l-370 -370l-370 370q-6 6 -14 6t-14 -6q-4 -4 -5.5 -9.5t0 -10.5t5.5 -9l369 -370l-369 -369q-6 -6 -6 -14.5t6 -14.5t14 -6q4 0 8 1.5t7 4.5l369 369l370 -369q6 -6 14 -6q4 0 8 1.5t7 4.5q6 6 6 14.5
t-6 14.5z" />
    <glyph glyph-name="uniE601" unicode="&#xe601;" 
d="M730 320l15 35q29 92 -54 107q-67 12 -205 -33q34 29 33 73t-30 65q-30 19 -69 18.5t-84 -22.5t-90 -54.5t-86 -76.5t-72.5 -89.5t-50.5 -93t-19 -86.5q0 -44 24.5 -89t71 -84t126.5 -64t180 -25q101 0 183 21t132.5 53t85 71.5t48 75t13.5 65.5q0 37 -16 64t-36.5 39.5
t-46 20t-37 8.5t-16.5 1zM432 -49q-81 -8 -151.5 12.5t-114.5 63.5t-50 97q-7 84 74 151t204 78q36 3 69 1t64 -9.5t57.5 -18.5t48.5 -26.5t38.5 -34t26.5 -40.5t12 -45q8 -84 -73.5 -151t-204.5 -78zM374 273q-67 -11 -107 -59.5t-30.5 -105.5t63.5 -89.5t120.5 -21t107 60
t30.5 105.5t-63.5 89t-120.5 21zM359 56q-22 -6 -41 4t-24.5 29.5t6 37.5t33 24t40.5 -3.5t24 -29.5q2 -8 1.5 -15.5t-3.5 -15t-8 -13.5t-12.5 -10.5t-15.5 -7.5zM433 141q-11 0 -19 7.5t-8 18.5q0 27 27 27q11 0 19 -8t8 -19q0 -3 -1 -6.5t-3 -6.5t-4.5 -5.5t-5 -4.5
t-6 -2.5t-7.5 -0.5zM951 604q-44 57 -113 80.5t-153 11.5q-6 0 -11 -2.5t-8.5 -6.5t-6 -8.5t-3.5 -10t-1 -11.5q2 -14 13.5 -22.5t26.5 -6.5q134 19 201 -66q30 -39 38 -89t-10 -93q-3 -6 -2.5 -13t3 -13t7.5 -11t11 -8q3 -1 6.5 -1.5t6.5 -0.5q11 0 19.5 5.5t12.5 15.5
q7 17 11 35.5t5.5 37t0 37.5t-6 37.5t-11 36.5t-16 34.5t-20.5 31.5zM718 570q-14 -2 -22.5 -13.5t-6.5 -25.5t13.5 -22.5t25.5 -6.5q49 7 72 -22q5 -7 8 -14.5t4.5 -15.5t0.5 -16.5t-4 -15.5q-5 -13 0.5 -26t18.5 -19q4 -1 7 -1.5t6 -0.5q7 0 13.5 2.5t11.5 7.5t8 11
q12 32 7 67.5t-27 62.5q-47 61 -136 48z" />
    <glyph glyph-name="uniE602" unicode="&#xe602;" 
d="M316 680q8 1 15.5 1.5t15.5 1t16 0.5h3q24 0 47 -3q9 -1 19 -3h4q1 0 3 -1h4q2 -1 3 -1q3 -1 6 -1.5t6 -1.5q3 0 6 -1t5 -1q5 -1 10 -3q2 0 4 -1t5 -1q2 -1 4 -1l4 -2q2 0 3.5 -1t3.5 -1q4 -2 7 -3l7 -2q3 -2 7 -3q1 -1 2.5 -1.5t3.5 -1.5l6 -2q3 -2 5 -3h3l3 -2
q1 -1 2 -1.5t2.5 -1t3 -1.5t2.5 -1l5 -3q1 0 2 -1t2 -1l5 -3q3 -2 4 -2.5t2.5 -1t1.5 -1.5q2 -1 5 -3q1 0 2 -0.5t2 -1.5t3 -2l1 -1q1 0 3 -2l4 -3q1 0 3 -1l1 -1q3 -2 3 -3q1 0 2 -1t2 -1q1 -2 3 -3q1 -1 2 -1.5t1 -1.5h2l1 -2q1 0 1 -1q2 -1 2.5 -1.5t1.5 -1t2 -1.5v-1
q2 -1 3 -2q1 0 3 -2q0 -1 1 -1.5t1.5 -1t1.5 -2.5h1l3 -3q1 -1 3 -2l2 -3q1 0 1.5 -1t1.5 -1q1 -2 2 -3q1 0 1.5 -1t1 -1.5t1.5 -0.5q1 -1 1.5 -2t0.5 -1.5t1 -1.5l3 -2q1 -2 2 -3l1 -1l1 -1q1 -1 2 -3l2 -2l2 -2l2 -2v-1l1 -2l1 -1q1 0 2 -1v-1l1 -2l1 -1q2 -2 2 -3l2 -2
v-2h2q0 -1 1 -3l1 -1l1 -2l1 -1q0 -1 1 -1l1 -2v-1l1 -1q1 -1 1 -1.5t1 -1.5q0 -1 0.5 -1t1 -1t0.5 -1.5t0.5 -1.5t1 -1t1 -1t0.5 -2v-1l1 -1l1 -2v-1q1 0 2 -1v-1l1 -1v-2q1 -1 1 -2l1 -2l1 -1v-1l1 -1l1 -3v-1l1 -1l1 -3q1 -1 1 -2q1 -1 1 -2v-1v-1l1.5 -1.5t0.5 -1
t0.5 -1.5t0.5 -3l1 -1v-1q1 -2 1 -3l1 -1v-2q1 -1 1 -2l1 -2v-2l0.5 -1l0.5 -1v-2l1 -1v-1v-1q0 -1 0.5 -1.5t0.5 -1.5v-1l1 -2v-1v-1v-1l1 -3v-1v0q-5 0 -9.5 0.5t-9.5 0.5q-8 1 -15 1q-4 0 -8.5 -0.5t-8.5 -0.5q-14 0 -28 -2q-4 -1 -8 -1.5t-8 -1.5l-12 -2q-6 -2 -10 -3
l-10 -2q-2 -1 -4 -1.5t-4 -1.5l-7 -3q-2 0 -4 -0.5t-3 -1.5q-4 -1 -7 -3q-2 0 -3.5 -1t-2.5 -1l-6 -3q-3 -1 -5 -2l-6 -3l-4 -2q-3 -2 -5 -3l-5 -2q-1 -1 -2 -1.5t-2 -1.5l-4 -3l-5 -2q0 -1 -1 -1l-3 -2q-1 -1 -3 -2q-3 -2 -4 -3q-1 0 -3 -1l-1 -1l-3 -3l-3 -2q-1 -1 -3 -2
l-1 -1l-1 -1q-1 -1 -2 -1q0 -1 -3 -3q-2 -1 -3 -2l-3 -3l-3 -3h-1q0 -1 -2 -2q0 -1 -1 -1.5t-1 -1.5l-3 -2l-2 -2q0 -1 -1 -1l-2 -2l-2 -2l-1 -1l-2 -2q-1 -2 -2.5 -3t-2.5 -2q0 -1 -2 -3q0 -1 -0.5 -1.5t-1.5 -1t-2 -1.5v-1q-1 -2 -2 -3l-2 -2l-2 -2v-1l-2 -2q-1 -1 -2 -3
t-2 -3l-1 -1l-1 -1v-1l-1 -1q-1 -1 -2 -3l-2 -3l-1 -1l-1 -1l-1 -3l-2 -2q0 -1 -0.5 -1.5t-0.5 -1t-0.5 -1.5l-0.5 -1l-2 -2v-1l-2 -2l-1 -3l-1 -1v-1l-1 -1l-1 -2v-1q-1 -1 -1 -2q-1 -1 -1 -2l-1 -3l-2 -2v-1l-1 -2v-1l-1 -1l-1 -1v-2t-1 -2v-1q-1 -1 -1 -2v-1l-1 -1
q0 -1 -1 -2v-1l-1 -2q-1 -2 -1 -3t-1 -3v-1q0 -1 -1 -1v-2v-1q-1 -1 -1 -2l-1 -1v-2v-1q-1 -1 -1 -2t-0.5 -1.5t-0.5 -1.5v-1q0 -1 -0.5 -1.5t-0.5 -1.5v-1v-1l-1 -2v-1q0 -2 -1 -3v-2l-1 -3v-2q-1 -2 -1 -3v-2q0 -2 -1 -3v-1v-1v-3l-1 -1v-1v-3v-1v-1q0 -1 -0.5 -2t-0.5 -2
v-2v-2v-3l-1 -2v-1v-2v-2v-2v-1v-1v-1v-3v-2v-1v-2v-3v-2v-3v-2v-3v-2v-3q1 -1 1 -2v-1v-2v-2v-3q0 -1 1 -2v-1v-2v-2v-1q0 -1 1 -2v-3q0 -2 0.5 -2.5t0.5 -2.5v-2q1 -2 1 -3q0 -2 0.5 -2.5t0.5 -2.5v-1q0 -1 1 -2v-2q1 -2 1 -3v-2l1 -1v-2q1 -1 1 -2v-2v-1l1 -1
q-10 -1 -18 -1q-8 -1 -15.5 -1t-14.5 1q-14 0 -29 2q-5 1 -9 1.5t-9 1.5q-3 0 -6.5 1t-7.5 1q-6 1 -13 3q-6 1 -13 2q-6 2 -12 3q-3 1 -6 1.5t-6 0.5l-125 -62l1 1l1 3v3l2 5l1 2l2 5l1 3v2l1 3l1 2l2 5l1 3l1 5l1 3l1 2l2 5l1 3l1 5l1 2l2 6l1 2v3l2 5l1 2l1 3l1 2l2 8l1 3
l1 2l1 3l1 2v3l1 1v1h-2l-3 3q-1 0 -4 3l-3 2q-2 1 -3.5 2.5t-3.5 2.5l-3 3q-2 1 -3 2l-3 3l-3 2q-3 2 -3 3q-2 1 -3 2l-3 3q-2 1 -3 2l-3 3l-2 2l-3 3q-2 2 -3 2q-2 2 -2.5 3t-2.5 2.5t-3 2.5q-1 2 -2 3l-3 2q0 1 -1 2l-1 1l-2 2l-3 3l-2 2q0 1 -1 2l-1 1q-1 2 -2 2
q-1 2 -2 3l-2 2v1l-2 2q-1 1 -2 2.5t-2 2.5q0 1 -2 3q0 1 -2 2q-1 2 -2 3l-1 2q-1 2 -2 3q-1 2 -2 2q0 1 -1 2v1q-1 2 -2 3t-1 2q-1 1 -2 3q-1 1 -1.5 2.5t-1.5 2.5t-1 2l-1 2l-1 1l-1 1v1l-1 3q-1 0 -1 2h-1q0 2 -1 3t-1 2l-1 3l-1 1v2q-1 0 -2 2q0 1 -0.5 2.5t-1.5 2.5
l-1 3v2h-1q0 1 -1 3v1l-1 1v1v2l-1 3q-1 1 -1 2l-1 3l-1 2v2l-0.5 0.5t-0.5 1.5v1q-1 2 -1 3l-1 2v1v2v1l-1 1v1v2q0 1 -1 2v3q0 1 -0.5 1.5t-0.5 1.5v1v1q0 1 -1 3v1v1q0 2 -1 3v2v3v2q-1 2 -1 3v1v1v3v1v2l-1 2v3v1v2v2v2v3v1v1v1v1v1v2v2v1v2v2v1v1v2v1v1v2q1 0 1 1v2v2
v1v1v1v3q1 0 1 1v1v2v1v2q0 1 1 2v1v1v1v2l1 1v1v2v1q0 1 1 1v3q0 2 0.5 2.5l0.5 0.5v2l1 2v1v2v1q1 1 1 2t1 2v1v1q0 1 1 2v1l1 3v1q0 1 0.5 1.5t0.5 1.5v1l1 2q1 2 1 3l1 1v1v1l1 2q0 1 1 2v2l1 1v1l1 2v1q0 1 1 1v1q0 1 1 2v1q0 1 0.5 1.5t1.5 2.5v1q1 0 1 1q1 2 1 2.5
t1 1.5v1q1 1 2 3l1 2l1 3l1 1q0 1 0.5 1.5t0.5 1.5l1 1v1l1 2q1 2 2 2q0 1 1 2v1v1q1 1 2 1q0 1 1 3q1 0 2 2v1l1 1q1 1 2 3l1 1l1 2q1 1 1 2q2 2 2 3h1q1 2 1 3l1 1l1 1v1l2 2l2 2q0 1 1 2q1 0 1 1l2 2q0 1 2 3v1l2 1q0 1 2 3l2 2l1 2l2 1l2 3l2 2l2 2l1 1l2 2l2 2l1 1l2 2
l2 2l2 2l2 2l2 2q2 2 3 2l3 3l1 1q1 1 2 1.5t3 2.5l3 3l3 2q2 2 3 2.5t3 2.5h1q2 2 3 2.5t2 1.5t2 1l3 3q1 0 1.5 0.5t2.5 1.5l1 1l3 2l4 2q2 2 4 3q1 1 2 1.5t2 1.5q1 0 4 2l1 1l3 2h2l3 2l2 2l3 1l5 2q1 1 2 1l3 2l5 2q4 2 5 3l6 2l6 3q3 1 6 3q2 0 3.5 0.5t3.5 1.5
q4 2 7 3l8 2q1 1 2 1t2.5 0.5t2.5 1.5q3 0 5 1t4 1q4 1 10 3l10 2q3 1 6 1.5t6 1.5q2 0 5 1h4q3 1 5 1q5 1 9.5 1.5t9.5 1.5v0zM615 271q-7 0 -13.5 -3t-11.5 -8t-8 -11.5t-3 -12.5q0 -4 1 -7.5t2.5 -6.5t3.5 -6t4.5 -5.5t5.5 -4.5t6 -3.5t6.5 -2t6.5 -0.5q13 0 23.5 5
t16 13t5.5 18q0 14 -13 24.5t-32 10.5zM812 271q-14 0 -25 -11t-11 -24q0 -6 2 -11t5.5 -9.5t8 -8t9.5 -5.5t11 -2q19 0 31.5 10.5t12.5 25.5q0 9 -5.5 17t-15.5 13t-23 5zM248 531q-10 0 -19.5 -3.5t-17 -9t-12.5 -14t-5 -18.5q0 -19 16.5 -32t37.5 -13q8 0 15 2t12.5 6
t9.5 9.5t6 12.5t2 15q0 10 -3 18.5t-9 14t-14.5 9t-18.5 3.5zM499 441q20 0 32 12.5t12 32.5t-12 32.5t-32 12.5q-21 0 -37.5 -13t-16.5 -32t16.5 -32t37.5 -13zM488 330l2 1l1 1l1 1l1 1q0 1 3 3l1 1q1 0 1 1q1 0 3 2l1 1l1 1q1 0 2 1l1 1l1 1q1 1 2 1q0 1 2 2l1 1l2 2
q1 0 3 2q2 1 3 2l4 2q1 1 3 2.5t3 1.5l2 2q1 0 1 1h1q2 1 3 2q1 0 4 2q2 1 3 2l4 2q1 1 4 2q2 1 4 3l4 2q2 0 5 2q3 1 5 2t5 2q2 1 5 2l5 3l6 2q2 1 6 2l6 2l7 2q1 1 3 1.5t4 0.5q4 1 8 3q2 0 4.5 0.5t4.5 1.5l10 2q2 0 3.5 0.5t3 0.5t3 0.5t2.5 0.5l16 2q10 1 20 1.5
t21 0.5h1q20 0 39 -2l15 -2q7 -1 12 -2q4 -1 10 -2q2 -1 4 -1.5t5 -0.5q4 -2 7 -3q2 0 4 -0.5t4 -1.5l6 -2q3 -1 7 -2l5 -2l6 -2l5 -3q3 -1 5 -2q1 0 2.5 -0.5t2.5 -1.5q2 -1 5 -2q3 -2 4 -2.5t4 -1.5l4 -2l1 -1q3 -1 4 -2t3 -2q1 0 2 -1t2 -1h1l3 -3l3 -1q1 -1 2 -1l2 -2
q1 0 2 -1l1 -1q2 -1 3 -2q1 0 2 -0.5t1.5 -1t3.5 -2.5l3 -2q0 -1 3 -3l1 -1h1l2 -2q1 -1 2 -1l2 -2l2 -1l1 -1l2 -2q1 -1 3 -2q0 -1 1 -1l1 -2l3 -2l1 -1l1 -1q1 0 1 -1l1 -1q1 0 1 -1q1 -1 2 -1l1 -1l1 -1q1 -1 2 -3l2 -2q1 0 1.5 -1t1 -1t1 -1t1 -1t1 -1t0.5 -2h2v-2h2v-2
q2 -1 2 -2l2 -2l1 -1l1 -1q1 -2 2 -2l1 -2l1 -1l1 -2h1l1 -2l1 -1v-1l2 -2v-1q1 -1 2 -1v-1l1 -1l2 -2q0 -1 0.5 -1.5t0.5 -1.5l2 -2v-1l1 -1q1 -1 1.5 -2t1.5 -2q0 -2 1 -2q0 -1 0.5 -1.5t0.5 -1.5l1 -1v-1q1 0 1 -1t0.5 -1t1.5 -1v-1l1 -2q0 -1 1 -2l1 -3l1 -2l1 -2
q1 0 1 -1v-1q1 -1 1 -2l1 -2q0 -1 1 -2v-1l1 -2q1 -1 1 -2l1 -1v-1l1 -2v-2h1v-3l1 -2l1 -1v-1v-1q0 -1 0.5 -1t0.5 -1v-1q0 -1 1 -2q0 -2 1 -2v-2v-1l1 -2v-2q1 -1 1 -2v-1v-1l1 -1v-1v-3q1 -1 1 -2v-2l1 -2v-1v-1v-2l1 -3v-1v-1v-1v-1l1 -1v-1v-1v-1v-2v-1v-2l1 -1v-1v-2
v-1v-1v-1v-1v-1v-1v-2v-2v-1v-2v-4v-1v-1v-1v-1v-1v-2v-2v-1v-1v-2q0 -1 -1 -2v-2v-2v-1v-2q0 -1 -1 -2v-2v-2v-2h-1v-2v-1q0 -1 -0.5 -1.5t-0.5 -2.5v-2l-1 -2v-2q0 -1 -0.5 -1.5l-0.5 -0.5v-2v-1l-1 -2l-1 -2v-2q-1 -1 -1 -2l-1 -2q0 -2 -1 -3v-2q-1 -1 -1 -2l-1 -2l-1 -2
q0 -2 -1 -2v-3l-1 -1v-1q-1 0 -1 -1q-1 -1 -1 -2t-0.5 -1t-0.5 -1v-1l-1 -1v-1q-1 -1 -1 -2q-1 -1 -1 -2l-1 -1q0 -1 -1 -2q0 -1 -1 -2q0 -1 -1 -2q0 -1 -1 -2v-2h-1q-1 -1 -2 -3l-1 -1v-1q-1 -1 -1 -2l-2 -2q0 -1 -1 -2q0 -1 -1 -2t-1 -1.5t-1 -1.5q0 -1 -1 -2l-2 -2l-1 -2
l-1 -1l-1 -1q0 -1 -1 -2t-2 -3l-2 -2v-1q-1 0 -1 -1l-2 -2q-1 -2 -2 -2q0 -1 -1 -1v-1l-2 -2l-2 -2v-1l-1 -1l-1 -1l-2 -2l-2 -2l-2 -2v-2h-2v-2h-2v-2l-2 -1l-2 -2l-2 -2q-1 -2 -2 -2.5t-2 -1.5l-2 -3l-3 -2h-1l-1 -2l-1 -1l-1 -1q-1 -1 -3 -2l-2 -2q-2 -2 -2 -3
q-2 -1 -3 -2l-2 -2q-1 0 -2 -1l-1 -1q-1 -1 -3 -2l-2 -2l-1 -1q-1 -1 -2 -1l-3 -3l-2 -2q-1 0 -2 -1l-1 -1l-2 -2h-1l-1 -1v-1l2 -5v-2l1 -2l1 -2v-2l1 -2l1 -3v-2l1 -2l1 -2v-2l1 -2l1 -3v-2l1 -2l1 -2v-2l1 -2v-2l1 -3l1 -2v-2l1 -2l1 -2v-2l1 -3l1 -2v-2l1 -2l1 -2v-2
l2 -5v-2l1 -2l1 -2v-2l1 -3v-2l1 -1l-3 1l-4 2l-12 7l-79 44l-1 -1q-4 -1 -9 -2q-4 -1 -9 -2q-2 -1 -4.5 -1.5t-4.5 -1t-4.5 -1t-4.5 -0.5l-11 -3q-5 -1 -11 -2q-8 -1 -14 -2t-11.5 -1.5t-10.5 -0.5h-4h-2h-4h-2h-16h-10l-8 2h-9t-8 1t-8 1q-3 1 -6 1.5t-6 0.5q-1 1 -3 1
t-3.5 0.5t-3.5 1.5q-4 1 -8.5 2t-8.5 2l-7 2q-3 1 -7 2q-2 1 -6 2q-2 1 -6 2l-5 3q-4 1 -6 2q-3 1 -5 2t-5 2q-1 1 -2 1.5t-2 0.5l-5 2q-1 1 -2 1.5t-2 1.5q-1 0 -4 2q-3 1 -4 2q-1 0 -4 2q-1 1 -3 2h-1v1l-3 2q-1 0 -4 2l-3 2q-1 0 -4 2l-3 2q-2 1 -3 2t-3 2.5t-3 2.5
q-1 0 -2 1l-1 1l-1 1h-2l-2 3l-3 2l-2 2h-1l-2 2l-2 2l-1 1l-2 2l-2 2q-2 2 -3 2l-2 2l-2 2l-2 2v1h-1l-1 1l-2 2l-1 1l-2 2v1q-1 1 -2 1l-1 2h-1q0 1 -1 1v2q-1 0 -2 2q-2 1 -2 2q-1 0 -2 1v1l-2 2v1l-2 1q0 1 -1 2v1h-1q0 1 -1 2l-1 2l-2 2l-2 2v1l-1 1l-1 2q-1 1 -2 3
l-2 2v1t-0.5 1t-1.5 1v1l-1 2l-1 2h-1l-1 3q-1 1 -1 1.5t-1 1.5v1q-1 1 -1 1.5t-0.5 1t-0.5 1.5v1h-1q-1 1 -1 2q-1 1 -1 1.5t-1 2.5l-1 2q0 1 -1 2l-1 2q0 1 -1 2v2l-1 1l-1 2v1q-1 1 -1 3q-1 1 -1 2l-1 2l-1 2v3h-1v2l-1 1v1v2h-1v1v1q0 1 -1 2v2v1v1q-1 0 -1 1v1l-1 1v1
v1v1l-1 1v1v1q0 1 -1 2v1v1v1v1v1q-1 0 -1 1v1v2v2h-1v1v1v1v2l-1 2v1v1v2v1v2h-1v1v3v1v1v2v1v1v2v2v2q-1 0 -1 1v1v1v2v1v1v2v2v1v2l0.5 0.5t0.5 1.5v2v1v1v1v1v2v2v1v2q1 1 1 2v2v2v2l1 1v1v2v1v2l1 2v1v1q0 2 1 2v1v1v3q1 0 1 1v2v1l1 2v2l1 2v2l1 1v2l1 2v1q0 1 0.5 1
t0.5 1v1v1l1 1v2q1 0 1 1v2l1 2l1 1v1q1 1 1 2v1q0 1 1 2l1 1v1v2q1 1 1 2l1 2l1 2q0 1 1 1v1l1 1v1q0 1 1 1q0 1 0.5 1.5t0.5 1.5v1q1 1 1.5 2t1.5 2q0 1 0.5 1.5t0.5 1.5q1 1 1 1.5t0.5 1t0.5 1.5l2 2q0 1 0.5 1.5t1.5 2.5v1l2 1v2h1q0 1 0.5 1.5t0.5 1.5q2 1 2 2l1 1v1
l2 2q0 1 1 2l2 2v1l1 1l1 1q1 1 1 2l2 2l1 2h1l1 2l2 2q1 2 2 2v1l2 1l1 2q0 1 1 1l1 2q1 0 1 1l1 1q2 2 3 2q0 1 1 2h1q1 2 2 3l2 2l2 2l2 2v0z" />
    <glyph glyph-name="uniE603" unicode="&#xe603;" 
d="M288 812l512 -512l-512 -512l-64 63l449 449l-449 449z" />
    <glyph glyph-name="uniE604" unicode="&#xe604;" 
d="M472 48l-399 400q-17 16 -17 39.5t17 40.5q11 10 25.5 14t29 0t25.5 -14l359 -360l359 360q11 10 25.5 14t29 0t25.5 -14q7 -7 11 -15t5 -16.5t0 -17.5t-5 -17t-11 -14l-399 -400q-27 -26 -61 -12q-11 5 -19 12z" />
    <glyph glyph-name="uniE605" unicode="&#xe605;" 
d="M934 571v24h-846v-24h-24v-604h24v-24h846v24h25v604h-25zM100 559h25q10 0 17 -7t7 -17t-7 -17t-17 -7t-17.5 7t-7.5 17v24zM922 -21h-24q-10 0 -17 7t-7 17t7 17t17 7q5 0 9.5 -1.5t7.5 -5t5 -8t2 -9.5v-24zM946 -21h-12v24q0 10 -4.5 18.5t-13 13t-18.5 4.5
q-15 0 -25.5 -10.5t-10.5 -25.5t10.5 -25.5t25.5 -10.5h24v-12h-822v12h25q15 0 25.5 10.5t10.5 25.5q0 4 -1 7l-2 8q-1 3 -3 5.5t-4.5 5t-5.5 4.5t-6.5 3.5t-7 2t-6.5 0.5q-15 0 -26 -10.5t-11 -25.5v-24h-12v580h12v-24q0 -15 11 -25.5t26 -10.5t25.5 10.5t10.5 25.5
q0 7 -3 14t-8 11.5t-11.5 7.5t-13.5 3h-25v12h822v-12h-24q-15 0 -25.5 -10.5t-10.5 -25.5q0 -10 5 -18.5t13 -13t18 -4.5q15 0 25.5 10.5t10.5 25.5v24h12v-580zM100 -21v24q0 7 3.5 12.5t9 8.5t12.5 3q10 0 17 -7t7 -17t-7 -17t-17 -7h-25zM922 559v-24q0 -10 -7 -17
t-17 -7t-17 7t-7 17t7 17t17 7h24z" />
    <glyph glyph-name="uniE606" unicode="&#xe606;" 
d="M948 403v9h-874v-9h-10v-205h10v-9h874v9h9v205h-9zM78 398h10q2 0 4 -1l2 -2q2 -1 2.5 -2.5t0.5 -3.5q0 -10 -9.5 -10t-9.5 10v9zM944 203h-10q-4 0 -6.5 2.5t-2.5 6.5q2 8 9 9q4 0 7 -2.5t3 -6.5v-9zM953 203h-5v9q0 2 -0.5 4t-2 4t-3 3t-4 2t-4.5 1q-6 0 -10 -4
t-4 -10t4 -10t10 -4h10v-5h-866v5h10q6 0 10 4t4 10q-2 12 -14 14q-3 0 -5.5 -1t-4.5 -3t-3 -4.5t-1 -5.5v-9h-5v195h5v-9q0 -6 4 -10t10 -4q12 1 14 14q0 3 -2 6.5t-5 5.5t-7 2h-10v4h866v-4h-10q-3 0 -5.5 -1.5t-4.5 -3t-3 -4.5t-1 -5q0 -4 2 -7.5t5 -5t7 -1.5q13 1 14 14
v9h5v-195zM78 203v9q2 8 10 9q9 0 9 -9t-9 -9h-10zM944 398v-9q0 -10 -10 -10q-4 0 -6.5 3t-2.5 7q0 9 9 9h10z" />
    <glyph glyph-name="uniE607" unicode="&#xe607;" 
d="M942 731v17h-860v-17h-18v-860h18v-18h860v18h18v860h-18zM85 728h14q6 0 10.5 -4.5t4.5 -10.5q0 -4 -2 -7t-5.5 -5t-7.5 -2q-2 0 -4.5 0.5t-4.5 2.5l-2 2q-2 2 -2.5 4.5t-0.5 4.5v15zM939 -127h-15q-2 0 -4 1t-4 2.5t-3.5 3t-2 4t-0.5 4.5q0 6 4 10.5t10 4.5q4 0 7.5 -2
t5.5 -5.5t2 -7.5v-15zM957 -127h-15v15q0 5 -2.5 9t-6.5 6.5t-9 2.5q-7 0 -12 -5.5t-5 -12.5q0 -3 1.5 -6.5t3.5 -6t5.5 -3.5t6.5 -1h15v-15h-854v15h14q8 0 13 5t5 12t-5 12.5t-13 5.5q-2 0 -4 -0.5t-3 -1.5l-4 -2l-2.5 -2.5t-1.5 -3.5l-2 -4v-4v-15h-15v855h15v-15
q0 -7 5 -12t12 -5q4 0 7 1t5.5 3.5t4 6t1.5 6.5q0 5 -2.5 9t-6.5 6.5t-9 2.5h-14v14h854v-14h-15q-7 0 -12 -5t-5 -12.5t5 -12.5t12 -5q3 0 6 0.5t5 2.5t3.5 4t2.5 4.5t1 5.5v15h15v-855zM85 -127v15q0 4 2 7.5t5 5.5t7 2q6 0 10.5 -4.5t4.5 -10.5q0 -4 -2 -7.5t-5.5 -5.5
t-7.5 -2h-14zM939 728v-15q0 -6 -4.5 -10t-10.5 -4q-4 0 -7 2t-5 5t-2 7q0 6 4 10.5t10 4.5h15z" />
    <glyph glyph-name="uniE608" unicode="&#xe608;" 
d="M948 560v11h-873v-11h-12v-520h12v-11h873v11h12v520h-12zM77 558h9q10 0 10 -10q0 -4 -3 -6.5t-7 -2.5q-9 0 -9 9v10zM946 42h-9q-10 0 -10 10q0 4 3 6.5t7 2.5q9 0 9 -9v-10zM958 42h-10v10q0 4 -3 7.5t-8 3.5t-8.5 -3.5t-3.5 -8t3.5 -8t8.5 -3.5h9v-9h-869v9h9
q5 0 8.5 3.5t3.5 8t-3.5 8t-8.5 3.5t-8 -3.5t-3 -7.5v-10h-10v516h10v-10q0 -5 3 -8t8 -3q3 0 6 1.5t4.5 4t1.5 5.5t-1.5 6t-4.5 4.5t-6 1.5h-9v9h869v-9h-9q-5 0 -8.5 -3.5t-3.5 -8.5q0 -2 1 -4t2.5 -4t3.5 -2.5t5 -0.5q5 0 8 3t3 8v10h10v-516zM77 42v10q0 4 2.5 6.5
t6.5 2.5q10 0 10 -9q0 -4 -3 -7t-7 -3h-9zM946 558v-10q-1 -8 -9 -9q-8 1 -10 9q2 8 10 10h9z" />
    <glyph glyph-name="uniE609" unicode="&#xe609;" 
d="M950 556v11h-874v-11h-11v-513h11v-11h874v11h11v513h-11zM78 554h10q2 0 4 -1l2 -2q2 -1 2.5 -3t0.5 -4q0 -9 -9 -9q-2 0 -4 0.5t-3 2t-2 3.5t-1 3v10zM948 45h-10q-4 0 -6.5 3t-2.5 7q0 9 9 9q3 0 5 -1t3.5 -3.5t1.5 -4.5v-10zM959 45h-9v10q0 4 -3.5 7.5t-8.5 3.5
t-8 -3.5t-3 -8t3 -8t8 -3.5h10v-9h-870v9h10q3 0 5.5 1.5t4 4.5t1.5 6t-1.5 5.5t-4 4t-5.5 1.5t-6 -1.5t-4.5 -4t-1.5 -5.5v-10h-9v509h9v-10q0 -3 1.5 -5.5t4.5 -4t6 -1.5q10 2 11 11q0 3 -1 5t-2.5 3.5t-3.5 2.5t-4 1h-10v9h870v-9h-10q-2 0 -4 -1t-3.5 -2.5t-2.5 -3.5
t-1 -5t1.5 -5.5t4 -4t5.5 -1.5q5 0 8.5 3.5t3.5 7.5v10h9v-509zM78 45v10q0 9 9.5 9t9.5 -9.5t-9 -9.5h-10zM948 554v-10q0 -9 -10 -9q-8 2 -9 9q0 10 9 10h10z" />
    <glyph glyph-name="uniE60A" unicode="&#xe60a;" 
d="M277 748v-168l305 -290l-305 -290v-169l470 459z" />
    <glyph glyph-name="uniE60B" unicode="&#xe60b;" 
d="M186 280h287v-287q0 -8 6 -14t14.5 -6t14.5 6t6 14v287h286q9 0 15 6t6 14q0 4 -1.5 8t-4.5 6.5t-7 4.5t-8 2h-286v286q0 9 -6 15t-15 6q-5 0 -10 -3t-7.5 -7.5t-2.5 -10.5v-286h-287q-4 0 -8 -2t-6.5 -4.5t-4.5 -6.5t-2 -8q0 -3 1 -6t3 -5.5t4.5 -4.5t6 -3t6.5 -1z" />
    <glyph glyph-name="uniE60C" unicode="&#xe60c;" 
d="M819 321h-614q-4 0 -8 -2t-6.5 -4.5t-4.5 -6.5t-2 -8q0 -8 6 -14t15 -6h614q9 0 15 6t6 14.5t-6 14.5t-15 6z" />
    <glyph glyph-name="uniE60D" unicode="&#xe60d;" 
d="M363 102l-224 223l-74 -74l298 -299l596 597l-74 75z" />
    <glyph glyph-name="uniE60E" unicode="&#xe60e;" 
d="M63 292q0 91 35.5 174t95.5 143t143 95.5t174 35.5t174 -35.5t143 -95.5t96 -143t36 -174.5t-36 -174.5t-96 -143t-143 -95.5t-174 -35.5q-73 0 -141.5 22.5t-123.5 64t-96.5 97t-64 124t-22.5 141.5zM688 511l-229 -303l-136 136l-62 -63l208 -208l292 375z" />
    <glyph glyph-name="uniE60F" unicode="&#xe60f;" 
d="M736 -212l-512 512l512 512l64 -63l-449 -449l449 -449z" />
    <glyph glyph-name="uniE610" unicode="&#xe610;" 
d="M266 281l460 -467q3 -4 8 -5.5t9.5 0t8.5 4.5q5 6 5 13.5t-5 12.5l-447 455l453 452q13 14 0 26q-6 6 -13 6q-8 -1 -13 -6l-466 -465q-5 -5 -5 -13t5 -13z" />
    <glyph glyph-name="uniE611" unicode="&#xe611;" 
d="M779 288l-510 508l-27 -27l483 -482l-483 -481l27 -27z" />
    <glyph glyph-name="uniE612" unicode="&#xe612;" horiz-adv-x="1449" 
d="M1173 490l-127 -283q-11 -23 -36 -25l-367 -25l21 -60h400q35 0 60 -25t25 -60t-25 -60t-60 -25q-17 0 -33 6.5t-27.5 18t-18 27.5t-6.5 33h-396q0 -35 -25 -60t-60 -25q-23 0 -43 11.5t-31 31t-11 42.5t11 42.5t31 31t43 11.5h76l-163 467h-97q-18 0 -30.5 12.5
t-12.5 30.5q0 11 5.5 21t15.5 15.5t22 5.5h127q14 0 24.5 -8t15.5 -21v1l25 -71h629q11 0 21 -5.5t15.5 -15.5t5.5 -22q0 -8 -4 -17zM536 465l78 -224l365 24l90 200h-533z" />
    <glyph glyph-name="uniE613" unicode="&#xe613;" 
d="M512 812q-104 0 -199 -40.5t-163.5 -109t-109 -163.5t-40.5 -199q0 -83 26 -161.5t73 -141.5t110 -110t141.5 -73t161.5 -26t161.5 26t141.5 73t110 110t73 141.5t26 161.5q0 104 -40.5 199t-109 163.5t-163.5 109t-199 40.5zM512 -173q-96 0 -183.5 37.5t-151 101
t-101 151t-37.5 183.5t37.5 183.5t101 151t151 101t183.5 37.5q77 0 149 -24t130 -68t102 -102t68 -130t24 -149q0 -96 -37.5 -183.5t-101 -151t-151 -101t-183.5 -37.5zM448 510q-3 3 -6.5 5t-8.5 2q-6 0 -11 -4l-2 -1q0 -1 -1 -1q-2 -3 -3.5 -6t-2 -6t0.5 -6v-386
q-2 -11 5 -18q6 -6 14 -6t14 6l256 196q6 6 6 15q0 8 -6 14zM453 143v313l204 -156z" />
    <glyph glyph-name="uniE614" unicode="&#xe614;" 
d="M918 424h-182q-17 0 -29.5 12.5t-12.5 29.5q0 12 6 21.5t15.5 15t20.5 5.5h73q-50 71 -128 112.5t-168 41.5q-43 0 -84 -9.5t-76.5 -27.5t-67 -43t-56.5 -56.5t-43 -67t-27.5 -76.5t-9.5 -83q0 -99 48.5 -183t132.5 -132.5t182.5 -48.5t182.5 48.5t132.5 132.5t48.5 183
q0 17 12.5 29t29.5 12t29.5 -12t12.5 -29q0 -91 -35.5 -174t-95.5 -143t-142.5 -95.5t-174 -35.5t-174 35.5t-142.5 95.5t-95.5 143t-35.5 174t35.5 173.5t95.5 142.5t142.5 95.5t174.5 35.5q27 0 54.5 -3.5t53.5 -10t51 -16t48 -21.5t45 -27t41.5 -32t37 -36.5t32.5 -40.5
v75q0 18 12.5 30t29.5 12q11 0 21 -5.5t15.5 -15t5.5 -21.5v-168q0 -17 -12.5 -29.5t-29.5 -12.5z" />
  </font>
</defs>
</svg>
